<mxfile host="app.diagrams.net" modified="2024-03-19T06:34:26.625Z" agent="Mozilla/5.0 (Macintosh; Intel Mac OS X 10_15_7) AppleWebKit/605.1.15 (KHTML, like Gecko) Version/16.3 Safari/605.1.15" version="24.0.7" etag="cZ2OD9bPgRo6Khxclx7i" type="github">
  <diagram name="第 1 页" id="nQEccF9rW3yd9d5v-AOI">
    <mxGraphModel>
      <root>
        <mxCell id="0" />
        <mxCell id="1" parent="0" />
      </root>
    </mxGraphModel>
  </diagram>
</mxfile>
